<svg id="图层_1" data-name="图层 1" xmlns="http://www.w3.org/2000/svg" viewBox="0 0 2514.28 2003.21"><defs><style>.cls-1{fill:#eeb032;}.cls-2{fill:#eae77b;}.cls-3{fill:#e6d242;}</style></defs><title>logo </title><path d="M855.41,656.76c58.09-129.6,114.79-255.91,171.31-382.31C1056.28,208.32,1085,141.81,1115.13,76c12.38-27,32.35-48.31,58.41-63.44,37.26-21.64,97.29-14.83,130,17.35,24.75,24.35,39.23,54.26,53.31,84.86Q1419.09,250,1481.47,385.31q53.63,115.85,107.84,231.42c1.57,3.37,3.38,6.64,5.76,11.29,14.85-32.91,29.13-64.72,43.54-96.47,8.63-19,16.49-38.46,26.44-56.77,19.73-36.33,50-56.9,92.16-60.16,35.21-2.73,66.63,4.91,93,28.93,17.55,16,27.36,37.13,37.14,58.23q44,95,88.23,189.92,67.32,145.29,134.5,290.64c31.56,68.09,63.37,136.06,94.89,204.17q64.66,139.74,129.09,279.6,49.9,107.72,100.3,215.19c23.35,50.09,48,99.64,69.67,150.43,25.09,58.72,2.55,124.82-51.82,155.38-17.7,10-37.21,16.1-58.4,16.1q-1108.76-.24-2217.52-.78c-69.8-.1-118.61-52.82-119.08-116.49C57.1,1867.22,51.78,1854,38,1841c-41.89-39.51-48.72-87.82-22.51-146.7q100.65-226.1,201.67-452,93.93-210.58,187.79-421.22Q479.08,655,553.5,489c17.06-38.11,44.61-64.35,86-73.69,52.74-11.92,104.21,11.79,130.45,62.39,24,46.37,45.16,94.26,67.58,141.48C843,630.82,848.59,642.46,855.41,656.76Zm924.43,1163.79q276.23,0,552.45,0c5.2,0,10.57,0,15.58-1.23,44.33-10.6,65.7-57.67,45.7-100q-24.42-51.69-48.55-103.51-68.67-147.32-137.2-294.67-67.05-144.31-133.89-288.72-71.47-154-143-308c-22.64-48.8-45.05-97.71-67.69-146.51-11.79-25.4-23-51.16-36-75.91-15.44-29.26-45.26-41.08-77.17-32.35-25,6.83-37.06,26.71-46.68,48.24q-85,190.27-169.55,380.74-64.59,144.79-129.57,289.4-71.92,161.13-143.56,322.38c-31.62,70.94-63.68,141.69-94.92,212.8-11.18,25.45-11.29,51,7.1,73.86,14.76,18.32,35.18,23.64,58,23.62Q1505.3,1820.41,1779.84,1820.55Zm-657.5,2.73c-1.73-5.62-2.47-10-4.35-13.78-17.73-35.61-16.76-71.57-1.2-107.3,23.25-53.43,47.14-106.59,70.91-159.79,6.42-14.36,8-28.27,1-43.14-26.37-56.51-52.21-113.27-78.43-169.85Q1009,1110.75,907.51,892.16c-57.36-123.72-114.41-247.58-172.3-371-7.15-15.26-16-31.68-28.57-42.07-35.6-29.38-85.55-15.12-105.19,28.39Q544,634.59,487.42,762.08,383.59,994.87,280,1227.74,170.28,1474,60.79,1720.43c-9.23,20.81-11.5,42.73-2.43,64.27,12.82,30.42,39.54,38.35,68.88,38.38q490.56.47,981.12.2Zm102.89-369.06c2.54-4.82,4.43-8,5.93-11.3q54.39-121.07,108.68-242.16Q1449.18,956.42,1558.36,712c5.61-12.57,5.89-25.7.16-38.08-31.37-67.8-63.18-135.4-94.7-203.13q-61.46-132-122.72-264.16c-17.15-36.93-34.08-74-51.39-110.81-12.23-26-31.7-42.15-61.65-42.69-33.56-.61-54.09,17.77-67,46.74Q1027.27,399.53,893.43,699.15c-6.43,14.38-6.38,27.54.28,41.79q78.19,167.5,155.86,335.25Z"/><path class="cls-1" d="M1779.84,1820.55q-274.53,0-549.07.08c-22.77,0-43.19-5.3-58-23.62-18.39-22.81-18.28-48.41-7.1-73.86,31.24-71.11,63.3-141.86,94.92-212.8q71.83-161.16,143.56-322.38,64.63-144.77,129.57-289.4,84.9-190.32,169.55-380.74c9.62-21.53,21.7-41.41,46.68-48.24,31.91-8.73,61.73,3.09,77.17,32.35,13.06,24.75,24.23,50.51,36,75.91,22.64,48.8,45,97.71,67.69,146.51q71.46,154,143,308,67,144.35,133.89,288.72,68.47,147.39,137.2,294.67,24.14,51.81,48.55,103.51c20,42.33-1.37,89.4-45.7,100-5,1.19-10.38,1.23-15.58,1.23Q2056.06,1820.59,1779.84,1820.55Z"/><path class="cls-2" d="M1122.34,1823.28h-14q-490.56,0-981.12-.2c-29.34,0-56.06-8-68.88-38.38-9.07-21.54-6.8-43.46,2.43-64.27Q170.13,1474,280,1227.74,383.64,994.88,487.42,762.08q56.82-127.41,114-254.65C621.09,463.92,671,449.66,706.64,479c12.59,10.39,21.42,26.81,28.57,42.07,57.89,123.47,114.94,247.33,172.3,371q101.36,218.64,202.79,437.26c26.22,56.58,52.06,113.34,78.43,169.85,6.93,14.87,5.39,28.78-1,43.14-23.77,53.2-47.66,106.36-70.91,159.79-15.56,35.73-16.53,71.69,1.2,107.3C1119.87,1813.29,1120.61,1817.66,1122.34,1823.28Z"/><path class="cls-3" d="M1225.23,1454.22l-175.66-378Q971.69,908.53,893.71,740.94c-6.66-14.25-6.71-27.41-.28-41.79q134-299.53,267.61-599.26c12.93-29,33.46-47.35,67-46.74,30,.54,49.42,16.66,61.65,42.69,17.31,36.85,34.24,73.88,51.39,110.81q61.34,132.09,122.72,264.16c31.52,67.73,63.33,135.33,94.7,203.13,5.73,12.38,5.45,25.51-.16,38.08q-109.2,244.4-218.52,488.74-54.21,121.14-108.68,242.16C1229.66,1446.25,1227.77,1449.4,1225.23,1454.22Z"/></svg>